<svg width="31" height="29" viewBox="0 0 31 29" fill="none" xmlns="http://www.w3.org/2000/svg">
<path d="M1.5 7.5H29.5V17.9C29.5 21.2603 29.5 22.9405 28.846 24.2239C28.2708 25.3529 27.3529 26.2708 26.2239 26.846C24.9405 27.5 23.2603 27.5 19.9 27.5H11.1C7.73969 27.5 6.05953 27.5 4.77606 26.846C3.64708 26.2708 2.7292 25.3529 2.15396 24.2239C1.5 22.9405 1.5 21.2603 1.5 17.9V7.5Z" stroke="black" stroke-width="3" stroke-miterlimit="3.8637"/>
<path d="M28.5 7.5L26.9977 3.45544C26.5611 2.27993 25.4394 1.5 24.1855 1.5H6.81454C5.56057 1.5 4.43888 2.27993 4.00226 3.45544L2.5 7.5" stroke="black" stroke-width="3"/>
<path d="M5.5 12.5L6.0029 12.8395C11.9266 16.8379 19.7191 16.7023 25.5 12.5" stroke="black" stroke-width="3"/>
</svg>
